<svg width="25" height="18" viewBox="0 0 25 18" fill="none" xmlns="http://www.w3.org/2000/svg">
<path d="M0 16C0 14.8954 0.895431 14 2 14H23C24.1046 14 25 14.8954 25 16C25 17.1046 24.1046 18 23 18H2C0.89543 18 0 17.1046 0 16Z" fill="#1B1C20"/>
<path d="M0 9C0 7.89543 0.895431 7 2 7H23C24.1046 7 25 7.89543 25 9C25 10.1046 24.1046 11 23 11H2C0.89543 11 0 10.1046 0 9Z" fill="#1B1C20"/>
<path d="M0 2C0 0.895431 0.895431 0 2 0H23C24.1046 0 25 0.895431 25 2C25 3.10457 24.1046 4 23 4H2C0.89543 4 0 3.10457 0 2Z" fill="#1B1C20"/>
</svg>
