<svg width="20" height="16" viewBox="0 0 20 16" fill="none" xmlns="http://www.w3.org/2000/svg">
<path d="M19.7501 1.96029C19.0329 2.26966 18.2524 2.49232 17.4485 2.57904C18.2832 2.08318 18.9082 1.29982 19.2063 0.375913C18.4231 0.841825 17.5651 1.16853 16.6704 1.34154C16.2965 0.941756 15.8442 0.623272 15.3417 0.40593C14.8393 0.188589 14.2975 0.0770476 13.7501 0.0782568C11.5353 0.0782568 9.75401 1.87357 9.75401 4.07669C9.75401 4.38607 9.79151 4.69544 9.85244 4.9931C6.53604 4.81966 3.57823 3.23529 1.61182 0.809507C1.25352 1.4215 1.06576 2.11832 1.06807 2.82748C1.06807 4.21498 1.77354 5.43841 2.84932 6.15794C2.21535 6.13298 1.59622 5.95872 1.04229 5.64935V5.69857C1.04229 7.64154 2.41573 9.25169 4.24619 9.62201C3.9025 9.71128 3.54895 9.75695 3.19385 9.75794C2.93369 9.75794 2.6876 9.73216 2.43916 9.69701C2.94541 11.2814 4.41963 12.4322 6.1751 12.4697C4.80166 13.5454 3.08135 14.1783 1.21338 14.1783C0.878226 14.1783 0.568851 14.1665 0.247757 14.129C2.01963 15.2658 4.12198 15.922 6.38604 15.922C13.736 15.922 17.7579 9.83294 17.7579 4.54779C17.7579 4.37435 17.7579 4.20091 17.7462 4.02748C18.5243 3.45794 19.2063 2.75248 19.7501 1.96029Z" fill="#262626"/>
</svg>
